<svg width="180" height="180" viewBox="0 0 1024 1024" xmlns="http://www.w3.org/2000/svg">
  <defs>
    <radialGradient id="iconBg" cx="32%" cy="20%" r="86%">
      <stop offset="0%" stop-color="#120A24" />
      <stop offset="44%" stop-color="#090615" />
      <stop offset="100%" stop-color="#030308" />
    </radialGradient>
    <linearGradient id="brandStroke" x1="302" y1="282" x2="728" y2="704" gradientUnits="userSpaceOnUse">
      <stop offset="0%" stop-color="#ABB1FF" />
      <stop offset="54%" stop-color="#8D92F9" />
      <stop offset="100%" stop-color="#8451C9" />
    </linearGradient>
    <filter id="softGlow" x="-30%" y="-30%" width="160%" height="160%">
      <feGaussianBlur stdDeviation="20" result="blur" />
      <feColorMatrix in="blur" type="matrix" values="0 0 0 0 0.48 0 0 0 0 0.34 0 0 0 0 1 0 0 0 0.95 0" />
      <feMerge>
        <feMergeNode />
        <feMergeNode in="SourceGraphic" />
      </feMerge>
    </filter>
  </defs>
  <rect width="1024" height="1024" rx="228" fill="url(#iconBg)" />
  <circle cx="512" cy="508" r="280" fill="#8D92F9" opacity="0.08" />
  <circle cx="512" cy="508" r="214" fill="#8451C9" opacity="0.08" />
  <g opacity="0.26">
    <circle cx="256" cy="236" r="5" fill="#ABB1FF" />
    <circle cx="814" cy="316" r="4" fill="#F7F2FF" />
    <circle cx="742" cy="786" r="3" fill="#8D92F9" />
  </g>
  <g filter="url(#softGlow)">
    <path d="M352 392C352 332 400 296 466 296H594C660 296 708 338 708 400V506C708 568 660 610 594 610H514L424 680C404 696 376 680 382 654L394 610C368 606 352 584 352 546V392Z"
      fill="#030308" fill-opacity="0.34" stroke="url(#brandStroke)" stroke-width="46" stroke-linejoin="round" />
    <path d="M444 414H604L438 516H612"
      fill="none" stroke="#F7F2FF" stroke-width="50" stroke-linecap="round" stroke-linejoin="round" />
    <path d="M684 312L704 354L746 374L704 394L684 436L664 394L622 374L664 354L684 312Z"
      fill="#ABB1FF" opacity="0.9" />
  </g>
</svg>
